<?xml version="1.0" encoding="utf-8"?>
<!-- Generator: Adobe Illustrator 27.5.0, SVG Export Plug-In . SVG Version: 6.00 Build 0)  -->
<svg version="1.1" xmlns="http://www.w3.org/2000/svg" xmlns:xlink="http://www.w3.org/1999/xlink" x="0px" y="0px"
	 viewBox="0 0 500 500" style="enable-background:new 0 0 500 500;" xml:space="preserve">
<g id="BACKGROUND">
	<rect style="fill:#FFF6EE;" width="500" height="500"/>
</g>
<g id="OBJECTS">
	<g>
		<path style="fill:#513422;" d="M332.071,117.874c-15.647-12.99-33.592-20.942-53.767-23.848
			c-34.2-4.925-63.011,5.794-86.765,30.354c-10.589,10.949-17.231,24.433-22.293,38.727c-3.849,10.868-5.954,22.113-7.466,33.475
			c-3.555,26.727,2.933,50.978,18.397,72.936c1.453,2.064,2.93,4.111,4.369,6.184c2.487,3.583,4.09,7.531,4.983,11.803
			c0.268,1.281,0.141,1.854-1.299,1.893c-1.006,0.027-1.972,0.266-2.827,1.015c-2.634,2.306-3.535,5.32-3.686,8.634
			c-0.173,3.79,1.491,6.559,4.895,8.267c0.281,0.141,0.638,0.193,0.768,0.557c-3.678,2.171-4.768,5.474-4.25,9.529
			c0.535,4.186,3.12,6.613,7.06,7.981c-1.856,1.683-3.073,3.467-3.052,5.746c0.047,5.038,2.279,9.002,6.421,11.789
			c1.047,0.705,1.374,1.324,1.357,2.536c-0.053,3.722,0.559,7.245,4.167,9.337c2.429,1.409,4.459,3.201,6.041,5.53
			c0.355,0.522,0.913,0.954,1.463,1.288c5.924,3.596,12.366,5.426,19.291,5.54c1.088,0.018,2.124-0.292,3.118-0.731
			c1.782-0.786,3.641-1.186,5.594-1.051c3.971,0.274,6.959-1.356,9.095-4.658c0.355-0.549,0.768-1.072,1.045-1.658
			c0.325-0.687,0.748-0.893,1.527-0.881c4.817,0.078,8.666-1.931,11.653-5.645c1.507-1.874,1.916-4.051,1.338-6.347
			c-0.263-1.044,0.056-1.119,0.902-0.931c0.407,0.091,0.84,0.058,1.253,0.128c6.478,1.108,13.031-7.731,9.047-13.928
			c3.195,0.57,5.882,0.009,8.032-2.117c1.81-1.79,2.805-4.048,3.27-6.547c0.566-3.041,0.286-5.793-2.557-7.685
			c-0.733-0.488-0.527-0.829-0.02-1.384c2.776-3.037,5.941-5.531,9.676-7.297c2.75-1.3,5.566-2.435,8.379-3.584
			c19.88-8.119,35.803-21.247,47.092-39.369c10.549-16.935,17.135-35.578,20.091-55.396c2.511-16.832,1.611-33.355-4.517-49.414
			C353.861,142.835,345.208,128.779,332.071,117.874z M242.921,358.301c-0.178,0.745-0.618,1.487-1.701,1.207
			c-1.899-0.492-3.812-0.928-5.715-1.407c-0.951-0.239-1.887-0.541-2.839-0.776c-0.606-0.15-1.305-0.241-1.506,0.549
			c-0.196,0.768,0.424,1.07,1.035,1.239c2.342,0.647,4.69,1.271,7.035,1.906c0.389,0.105,0.775,0.221,1.26,0.36
			c-0.598,0.94-1.312,1.504-2.263,1.687c-0.96,0.185-1.944,0.423-2.908,0.386c-2.67-0.104-5.204,0.348-7.634,1.447
			c-0.736,0.333-1.541,0.414-2.336,0.379c-6.179-0.267-11.967-1.918-17.344-4.977c-0.733-0.417-1.382-0.967-1.856-1.681
			c-1.398-2.103-3.252-3.672-5.396-5.001c-1.636-1.014-3.367-2.104-3.5-4.39c0.412-0.316,0.739-0.005,1.066,0.092
			c2.329,0.693,4.649,1.413,6.978,2.106c0.68,0.202,1.504,0.432,1.751-0.51c0.222-0.844-0.564-1.066-1.191-1.265
			c-2.671-0.85-5.34-1.704-8.022-2.519c-0.876-0.266-1.158-0.803-1.092-1.668c0.047-0.623,0.23-0.834,0.865-0.586
			c6.501,2.542,13.336,3.979,20.022,5.893c8.034,2.3,15.977,4.944,24.135,6.816C242.178,357.684,243.146,357.36,242.921,358.301z
			 M257.32,348.598c-3.163-2.525-6.728-4.228-10.37-5.784c-1.246-0.532-2.511-1.019-3.775-1.509
			c-0.59-0.229-1.266-0.399-1.576,0.339c-0.352,0.839,0.337,1.173,0.959,1.414c3.184,1.235,6.321,2.573,9.328,4.197
			c1.482,0.801,2.878,1.734,4.194,2.792c0.655,0.527,0.749,1.012,0.134,1.604c-0.1,0.097-0.178,0.216-0.268,0.324
			c-1.893,2.266-1.977,2.282-4.513,0.772c-3.704-2.204-7.516-4.18-11.633-5.507c-0.737-0.238-1.74-1.019-2.173,0.132
			c-0.456,1.214,0.831,1.387,1.6,1.644c4.015,1.342,7.751,3.252,11.359,5.433c0.273,0.165,0.529,0.361,0.94,0.644
			c-2.01,1.155-3.961,1.391-6.005,1.155c-4.06-0.469-7.976-1.565-11.864-2.765c-8.711-2.688-17.472-5.195-26.288-7.517
			c-3.98-1.048-7.93-2.193-11.668-3.961c-1.86-0.88-3.39-2.112-4.373-3.961c0.307-0.399,0.698-0.245,1.043-0.24
			c4.169,0.062,8.304,0.397,12.378,1.362c0.82,0.194,2.089,0.808,2.345-0.532c0.241-1.259-1.13-1.082-1.914-1.278
			c-4.566-1.142-9.227-1.454-13.91-1.428c-1.038,0.006-1.539-0.313-1.769-1.288c-0.943-4.005-0.761-3.407,2.486-3.622
			c4.135-0.275,8.195,0.493,12.251,1.181c0.323,0.055,0.641,0.139,0.965,0.181c0.663,0.086,1.419,0.2,1.556-0.704
			c0.119-0.789-0.547-0.999-1.168-1.116c-4.873-0.922-9.754-1.758-14.751-1.383c-0.347,0.026-0.825,0.295-1.034-0.078
			c-0.236-0.419,0.201-0.758,0.438-1.089c1.021-1.427,2.538-1.559,4.038-1.315c8.81,1.431,17.681,2.473,26.442,4.222
			c6.612,1.32,12.756,3.944,18.915,6.538c5.039,2.122,10.051,4.309,15.071,6.476C257.037,344.937,257.907,346.434,257.32,348.598z
			 M269.702,336.108c-5.901-4.93-12.531-8.43-19.383-11.554c-0.552-0.252-1.126-0.458-1.699-0.659
			c-0.644-0.226-1.365-0.413-1.648,0.441c-0.253,0.763,0.388,1.078,0.972,1.293c3.304,1.213,6.396,2.867,9.47,4.551
			c2.992,1.639,5.937,3.362,8.668,5.421c0.821,0.619,1.532,1.356,2.269,2.073c0.87,0.847,0.745,1.474,0.069,2.335
			c-1.574,2.007-1.543,2.031-3.523,0.453c-2.79-2.223-5.89-3.959-8.987-5.696c-0.605-0.339-1.377-0.782-1.814,0.116
			c-0.418,0.86,0.383,1.234,0.988,1.574c2.69,1.51,5.375,3.026,7.856,4.871c0.633,0.471,1.232,0.988,1.927,1.549
			c-0.815,0.687-1.699,0.675-2.552,0.65c-2.933-0.086-5.743-0.776-8.424-1.938c-6.046-2.622-12.04-5.367-18.168-7.798
			c-3.948-1.566-7.798-3.493-11.996-4.269c-7.029-1.3-14.07-2.56-21.163-3.487c-4.308-0.563-8.662-0.939-12.678-2.81
			c-1.339-0.624-2.716-1.219-3.581-2.676c1.634-0.469,3.214-0.525,4.78-0.532c2.335-0.009,4.67,0.099,7.005,0.141
			c0.694,0.013,1.572,0.12,1.635-0.853c0.064-0.991-0.831-0.994-1.517-1.024c-4.015-0.173-8.032-0.387-12.026,0.299
			c-0.363,0.062-0.755,0.246-0.909-0.296c-0.307-1.086-0.486-2.187-0.412-3.321c0.035-0.534,0.467-0.454,0.801-0.587
			c2.181-0.868,4.482-0.91,6.766-0.923c5.754-0.034,11.494,0.199,17.173,1.241c0.679,0.125,1.553,0.382,1.742-0.579
			c0.207-1.052-0.759-1.148-1.477-1.265c-7.92-1.286-15.865-1.771-23.846-0.757c0.155-1.2,0.938-2.008,2.484-2.446
			c1.454-0.413,2.981-0.465,4.444-0.361c10.358,0.742,20.661,1.905,30.819,4.167c11.626,2.589,22.542,7.069,33.178,12.311
			c2.599,1.281,5.206,2.549,7.762,3.913c1.393,0.743,2.732,1.619,3.865,2.741C269.578,333.411,270.112,334.586,269.702,336.108z
			 M280.082,320.653c-2.828-1.963-5.479-3.76-8.356-5.19c-3.139-1.56-6.272-3.133-9.535-4.426c-0.217-0.086-0.427-0.193-0.649-0.265
			c-0.66-0.215-1.457-0.614-1.832,0.271c-0.386,0.909,0.455,1.199,1.1,1.456c3.739,1.491,7.355,3.242,10.922,5.099
			c2.325,1.21,4.546,2.596,6.612,4.21c1.475,1.153,1.185,4.288-0.432,5.246c-0.522,0.309-0.782-0.146-1.079-0.375
			c-3.948-3.04-8.363-5.293-12.761-7.57c-0.723-0.374-1.726-1.21-2.279-0.021c-0.508,1.092,0.738,1.299,1.428,1.668
			c4.201,2.247,8.478,4.367,12.277,7.291c0.219,0.169,0.423,0.358,0.689,0.586c-0.87,0.803-1.903,1.132-2.962,1.109
			c-2.282-0.051-4.574-0.187-6.668-1.267c-9.6-4.954-19.345-9.561-29.512-13.287c-3.475-1.273-6.965-2.56-10.544-3.241
			c-9.308-1.772-18.636-3.535-28.127-4.125c-1.492-0.093-2.979-0.354-4.47-0.362c-2.573-0.014-4.794-1.071-7.028-2.131
			c-0.251-0.119-0.486-0.283-0.704-0.456c-0.809-0.641-1.914-1.405-1.727-2.351c0.123-0.623,1.569-0.348,2.421-0.405
			c4.258-0.282,8.495,0.134,12.736,0.434c0.418,0.029,0.842,0.075,1.255,0.034c0.405-0.041,0.681-0.32,0.736-0.736
			c0.055-0.415-0.134-0.764-0.523-0.893c-0.438-0.145-0.904-0.242-1.364-0.277c-4.985-0.379-9.973-0.844-14.971-0.287
			c-1.019,0.114-1.211-0.262-1.15-1.144c0.239-3.495,0.185-3.721,3.746-3.932c6.056-0.359,12.031,0.452,17.996,1.379
			c0.801,0.124,2.023,0.701,2.197-0.592c0.163-1.206-1.147-1.121-1.964-1.253c-6.65-1.079-13.32-1.899-20.447-1.268
			c1.131-1.744,2.59-2.252,4.182-2.461c4.386-0.575,8.772-0.297,13.146,0.145c9.827,0.993,19.555,2.595,29.1,5.154
			c14.412,3.864,28.254,9.178,41.268,16.541c1.874,1.06,3.671,2.249,5.286,3.673C279.212,317.619,280.115,318.775,280.082,320.653z
			 M212.397,147.147c2.329,0.13,4.665,0.179,6.998,0.199c0.765,0.006,1.16,0.207,1.392,1c2.61,8.924,4.963,17.912,6.912,27.006
			c0.181,0.845,0.015,1.388-0.681,1.906c-1.235,0.919-2.433,1.894-3.59,2.909c-0.558,0.489-0.879,0.443-1.36-0.099
			c-1.83-2.058-3.713-4.07-5.565-6.109c-1.101-1.212-1.702-1.226-2.877-0.068c-1.928,1.9-3.867,3.791-5.81,5.676
			c-0.307,0.298-0.582,0.871-1.132,0.381c-0.464-0.413-0.993-0.727-0.662-1.61c1.475-3.94,2.625-7.985,3.68-12.057
			c0.305-1.176,0.625-2.347,0.935-3.522c0.165-0.625,0.234-1.297-0.516-1.529c-0.748-0.23-1.104,0.344-1.28,0.972
			c-0.441,1.574-0.871,3.152-1.272,4.737c-0.826,3.263-1.868,6.46-2.888,9.665c-0.313,0.983-0.584,1.058-1.37,0.37
			c-0.908-0.796-1.22-1.53-0.838-2.769c1.305-4.24,2.472-8.523,3.462-11.986c1.768-5.169,3.291-9.536,4.74-13.927
			C210.983,147.356,211.451,147.094,212.397,147.147z M212.066,144.325c1.313-3.889,2.576-7.795,3.863-11.693
			c0.038-0.114,0.139-0.208,0.369-0.54c0.326,1.21,0.597,2.219,0.871,3.227c0.818,3.016,1.611,6.039,2.471,9.043
			c0.245,0.855,0.145,1.174-0.829,1.12c-2.001-0.112-4.006-0.151-6.01-0.179C212.062,145.291,211.793,145.134,212.066,144.325z
			 M224.182,274.539c-0.073-0.445-0.345-0.773-0.846-0.787c-0.508-0.014-0.782,0.304-0.864,0.753
			c-0.083,0.456-0.106,0.927-0.119,1.392c-0.14,4.905-0.255,9.811-0.436,14.715c-0.019,0.514,0.493,1.481-0.599,1.513
			c-1.13,0.033-0.813-0.906-0.796-1.552c0.347-13.083,0.702-26.165,1.059-39.247c0.608-22.333,1.227-44.666,1.803-67
			c0.031-1.218,0.31-2.13,1.336-2.847c1.1-0.768,2.121-1.651,3.455-2.704c-0.189,6.982-0.368,13.613-0.549,20.245
			c-0.84,30.742-1.681,61.483-2.522,92.225c-0.009,0.327-0.007,0.655-0.037,0.98c-0.025,0.279-0.066,0.589-0.458,0.558
			c-0.321-0.025-0.704-0.04-0.769-0.452c-0.057-0.364-0.034-0.744-0.024-1.116c0.134-5.14,0.274-10.279,0.407-15.419
			C224.234,275.377,224.249,274.95,224.182,274.539z M218.134,240.966c-0.073-0.508-0.362-0.873-0.932-0.852
			c-0.5,0.018-0.73,0.355-0.883,1.038c-0.016,0.418-0.046,1.071-0.064,1.723c-0.423,15.555-0.844,31.11-1.269,46.665
			c-0.038,1.399-0.416,1.638-1.656,1.209c-0.819-0.283-0.509-0.917-0.498-1.405c0.111-4.952,0.255-9.903,0.391-14.854
			c0.035-1.261,0.13-2.524,0.095-3.783c-0.024-0.849,0.493-2.252-0.817-2.295c-1.452-0.047-0.988,1.447-1.018,2.318
			c-0.208,6.071-0.389,12.144-0.485,18.218c-0.02,1.265-0.424,1.517-1.554,1.261c-0.908-0.205-1.85-0.357-2.777-0.354
			c-1.267,0.004-1.495-0.554-1.461-1.722c0.477-16.114,0.906-32.23,1.345-48.345c0.511-18.778,1.028-37.556,1.511-56.334
			c0.027-1.059,0.308-1.863,1.094-2.582c1.721-1.575,3.337-3.26,5.153-4.735c0.53-0.431,0.876-0.461,1.399,0.034
			c1.937,1.831,3.768,3.758,5.507,5.774c0.556,0.644,0.303,1.439,0.283,2.164c-0.455,17.143-0.927,34.286-1.395,51.43
			c-0.497,18.217-0.992,36.435-1.49,54.652c-0.037,1.358-0.425,1.684-1.348,1.19c-0.622-0.333-0.395-0.891-0.383-1.368
			c0.188-7.428,0.39-14.855,0.591-22.283c0.229-8.502,0.461-17.004,0.688-25.506C218.173,241.805,218.194,241.378,218.134,240.966z
			 M205.899,181.837c0.509,0.508,0.298,1.152,0.282,1.736c-0.598,22.233-1.208,44.467-1.816,66.7
			c-0.342,12.518-0.704,25.035-0.999,37.555c-0.031,1.302-0.349,1.654-1.676,1.495c-2.997-0.359-3.003-0.285-2.919-3.365
			c0.964-35.358,1.927-70.716,2.892-106.073c0.013-0.497,0.052-0.993,0.088-1.68C203.351,179.406,204.651,180.591,205.899,181.837z
			 M277.972,170.697c0.947,1.213,2.031,2.319,2.99,3.523c2.164,2.719,2.193,5.657,0.689,8.66c-0.519,1.036-1.024,2.369-1.92,2.853
			c-1.134,0.612-1.696-1.161-2.728-1.526c-0.128-0.045-0.227-0.168-0.353-0.224c-1.685-0.744-2.752-1.766-2.955-3.846
			c-0.175-1.799-1.459-3.293-2.721-4.642c-7.311-7.816-6.33-18.239,2.344-24.654c2.291-1.694,4.621-3.33,6.627-5.374
			c1.303-1.327,2.526-2.717,3.63-4.232c-0.395,3.25-1.738,6.098-3.41,8.827c-1.34,2.188-2.861,4.267-3.95,6.606
			C273.863,161.714,274.598,166.38,277.972,170.697z M283.34,183.731c1.8-3.663,1.731-7.212-0.8-10.539
			c-0.791-1.039-1.69-1.997-2.55-2.982c-3.7-4.239-4.271-8.64-1.623-13.583c1.101-2.055,2.405-4.003,3.637-5.987
			c1.694-2.727,2.922-5.636,3.529-8.799c0.076-0.395,0.064-0.839,0.415-1.166c0.457,0.111,0.44,0.554,0.582,0.86
			c1.221,2.628,2.281,5.341,3.661,7.881c3.928,7.23,3.865,14.795,2.019,22.49c-1.011,4.215-2.614,8.19-5.877,11.286
			c-1.29,1.224-2.691,2.243-4.546,3.281C282.431,185.344,282.933,184.561,283.34,183.731z M280.362,142.249
			c-2.188,2.587-4.777,4.722-7.561,6.636c-4.365,3.001-7.083,7.173-8.251,12.271c-1.326,5.792,0.419,10.795,4.49,15.024
			c1.408,1.463,2.579,3.033,3.161,5.328c-1.691-0.408-3.161-0.727-4.671-0.834c-2.346-0.165-4.673-0.238-6.944,0.464
			c-0.737,0.228-1.081-0.005-1.431-0.643c-2.568-4.682-3.502-9.56-2.295-14.865c1.484-6.525,4.287-12.318,8.838-17.244
			c0.989-1.07,2.111-1.978,3.331-2.771c4.966-3.226,10.152-6.142,14.595-10.212C283.143,137.998,282.038,140.267,280.362,142.249z
			 M259.645,184.396c0.24-0.895,0.695-1.328,1.579-1.502c6.524-1.285,12.198,0.363,17.069,4.867c0.649,0.6,0.841,1.197,0.576,2.101
			c-1.864,6.371-3.688,12.755-5.475,19.148c-0.269,0.96-0.514,1.168-1.467,0.652c-2.627-1.423-5.296-2.758-8.248-3.449
			c-1.751-0.41-1.727-0.513-1.225-2.277c0.55-1.933,1.111-3.864,1.647-5.801c0.177-0.64,0.362-1.393-0.501-1.647
			c-0.862-0.253-1.116,0.466-1.305,1.113c-0.653,2.244-1.355,4.478-1.909,6.747c-0.331,1.352-1.213,0.885-1.963,0.75
			c-1.033-0.187-0.352-0.9-0.243-1.307c0.7-2.619,1.475-5.218,2.206-7.829c0.188-0.67,0.474-1.523-0.462-1.776
			c-0.927-0.251-1.121,0.628-1.315,1.296c-0.82,2.829-1.712,5.641-2.386,8.505c-0.317,1.347-1.175,0.827-1.807,0.749
			c-0.907-0.112-0.309-0.804-0.205-1.18c0.879-3.201,1.806-6.388,2.718-9.579C257.841,190.785,258.785,187.602,259.645,184.396z
			 M255.11,206.672c5.656,0.285,10.934,1.792,15.874,4.557c1.091,0.611,1.456,1.209,1.069,2.544
			c-4.067,14.004-8.052,28.032-12.06,42.054c-4.021,14.066-8.037,28.134-12.086,42.192c-0.13,0.45,0.132,1.381-0.937,1.189
			c-1.044-0.187-1.045-0.812-0.802-1.64c0.223-0.759,0.312-1.556,0.529-2.316c5.002-17.529,10.015-35.055,15.022-52.583
			c0.141-0.493,0.283-0.992,0.347-1.498c0.057-0.452-0.142-0.836-0.618-0.974c-0.476-0.138-0.849,0.074-1.035,0.497
			c-0.224,0.51-0.392,1.049-0.546,1.586c-5.214,18.198-10.425,36.396-15.625,54.598c-0.2,0.7-0.25,1.332-1.319,0.953
			c-0.94-0.333-1.358-0.601-1.025-1.744c2.683-9.198,5.295-18.417,7.929-27.63c2.39-8.359,4.788-16.715,7.155-25.081
			c0.221-0.782,0.9-1.933-0.35-2.265c-1.233-0.327-1.236,1.01-1.461,1.795c-5.014,17.477-10.022,34.956-14.975,52.451
			c-0.355,1.254-0.832,1.427-1.945,0.988c-0.868-0.343-0.789-0.837-0.587-1.538c1.518-5.254,3.014-10.514,4.516-15.772
			c1.297-4.539,2.596-9.078,3.892-13.617c0.115-0.404,0.242-0.808,0.316-1.221c0.095-0.537,0.054-1.079-0.576-1.257
			c-0.619-0.175-0.961,0.235-1.165,0.75c-0.154,0.39-0.258,0.8-0.373,1.204c-2.75,9.617-5.532,19.225-8.211,28.862
			c-0.379,1.362-0.885,1.711-2.192,1.3c-1.469-0.462-2.979-0.795-4.482-1.14c-0.685-0.157-0.991-0.443-0.7-1.157
			c0.105-0.258,0.158-0.538,0.235-0.807c7.964-27.863,15.94-55.723,23.859-83.599C253.169,206.987,253.764,206.604,255.11,206.672z
			 M297.813,189.028c-0.4-0.692-0.272-1.042,0.264-1.52c10.673-9.523,21.451-18.919,32.843-27.585
			c0.692-0.526,1.259-0.514,1.878-0.027c0.688,0.541,0.062,1.029-0.153,1.462c-1.926,3.896-3.898,7.768-5.826,11.663
			c-0.338,0.684-0.749,0.961-1.544,1.137c-5.016,1.109-8.828,3.733-10.452,8.864c-0.451,1.425-0.809,2.882-0.883,4.388
			c-0.141,2.89,1.031,5.262,3.538,6.514c2.453,1.225,5.03,0.764,7.22-1.036c5.549-4.56,6.965-11.07,3.759-17.352
			c-0.251-0.491-0.224-0.839,0.004-1.291c2.086-4.129,4.155-8.267,6.231-12.401c0.164-0.327,0.297-0.78,0.787-0.578
			c0.488,0.201,1.153,0.281,1.156,1.033c0.004,0.888-0.017,1.775-0.027,2.663c-0.158,13.422-1.269,26.787-2.392,40.152
			c-0.092,1.094-0.391,1.538-1.621,1.695c-3.263,0.417-6.173,1.837-8.706,3.921c-2.623,2.158-4.716,4.788-6.397,7.74
			c-0.342,0.601-0.61,1.139-1.479,0.646c-0.894-0.507-0.335-1.046-0.098-1.519c1.303-2.603,2.793-5.078,5.049-7.001
			c0.535-0.456,1.204-1.018,0.51-1.735c-0.668-0.69-1.288-0.056-1.816,0.391c-2.442,2.067-4.021,4.764-5.496,7.542
			c-0.213,0.402-0.166,1.259-1.09,0.835c-0.884-0.407-0.435-0.974-0.225-1.51c0.723-1.84,1.746-3.51,2.928-5.087
			c0.224-0.299,0.476-0.579,0.681-0.89c0.35-0.532,0.648-1.132-0.025-1.598c-0.59-0.408-1.06-0.006-1.436,0.452
			c-1.489,1.814-2.855,3.719-3.673,5.933c-0.43,1.163-0.882,1.53-2.067,0.814c-1.395-0.842-2.88-1.551-4.374-2.207
			c-1.107-0.486-1.491-0.924-0.681-2.098c1.228-1.781,1.911-3.843,2.461-5.93c0.192-0.729,0.674-1.728-0.426-2.023
			c-1.095-0.294-1.142,0.819-1.395,1.535c-0.093,0.264-0.157,0.538-0.234,0.808c-0.561,1.738-1.196,3.446-2.21,4.98
			c-0.297,0.449-0.387,1.263-1.299,0.81c-1.001-0.496-0.228-1.014-0.015-1.461c1.29-2.713,2.438-5.465,2.711-8.5
			c0.025-0.279,0.056-0.559,0.05-0.838c-0.013-0.599-0.148-1.178-0.867-1.222c-0.737-0.045-0.954,0.55-0.982,1.126
			c-0.092,1.941-0.583,3.787-1.294,5.575c-0.448,1.127-1.001,2.211-1.511,3.313c-0.203,0.438-0.383,0.869-1.029,0.536
			c-0.57-0.293-0.892-0.571-0.572-1.29c1.301-2.924,2.174-5.971,2.453-9.169C300.372,195.911,299.721,192.323,297.813,189.028z
			 M322.777,191.837c-3.392,2.343-6.612,0.001-6.951-3.766c-0.119-1.317,0.315-2.587,0.53-3.625c1.184-4.72,4.371-7.048,8.535-8.348
			c1.117-0.349,1.944,0.013,2.357,1.123C329.463,183.183,328.174,188.111,322.777,191.837z M297.749,211.963
			c5.723,2.971,11.5,5.841,17.284,8.692c0.981,0.484,1.13,0.879,0.624,1.883c-14.5,28.804-28.969,57.623-43.42,86.451
			c-0.431,0.859-0.758,1.059-1.663,0.552c-3.183-1.782-6.516-3.268-9.832-4.782c-0.443-0.202-1.235-0.262-0.969-0.764
			c1.902-3.793,3.62-7.218,5.339-10.644c0.901-1.796,1.808-3.59,2.705-5.388c0.331-0.663,0.891-1.5,0-1.97
			c-1.024-0.54-1.319,0.524-1.659,1.197c-2.509,4.963-4.999,9.936-7.496,14.905c-0.663,1.319-1.889,1.522-2.915,0.488
			c-0.513-0.517,0.063-0.861,0.237-1.21c3.731-7.487,7.487-14.962,11.24-22.438c2.936-5.847,5.875-11.693,8.81-17.54
			c0.126-0.25,0.253-0.502,0.347-0.765c0.191-0.53,0.197-1.053-0.396-1.315c-0.573-0.253-0.99,0.068-1.287,0.543
			c-0.173,0.277-0.305,0.578-0.452,0.87c-6.693,13.323-13.41,26.633-20.041,39.987c-0.713,1.435-1.413,0.658-2.213,0.412
			c-1.157-0.356-0.439-0.985-0.184-1.492c14.524-28.948,29.064-57.888,43.561-86.85C295.987,211.55,296.451,211.289,297.749,211.963
			z M362.873,205.506c-2.662,20.266-9.276,39.292-19.935,56.615c-11.042,17.946-26.75,30.909-46.355,38.948
			c-0.995,0.408-1.988,0.822-2.993,1.202c-6.063,2.296-11.607,5.402-16.012,10.276c-0.455,0.504-0.839,0.832-1.476,0.241
			c-0.745-0.691,0.08-0.99,0.342-1.345c4.764-6.473,11.123-10.843,18.438-13.964c5.287-2.256,10.632-4.388,15.609-7.313
			c2.222-1.306,4.36-2.725,6.398-4.296c0.551-0.425,1.282-0.933,0.702-1.704c-0.578-0.768-1.251-0.236-1.82,0.204
			c-5.11,3.952-10.82,6.82-16.749,9.298c-3.148,1.316-6.271,2.685-9.325,4.218c-5.573,2.797-10.209,6.71-14.086,11.56
			c-0.379,0.475-0.745,0.961-1.136,1.425c-0.195,0.231-0.374,0.624-0.775,0.331c-0.355-0.259-0.163-0.584-0.018-0.877
			c0.268-0.545,0.546-1.086,0.819-1.629c14.54-28.945,29.134-57.863,43.553-86.868c1.764-3.548,3.772-6.756,6.703-9.345
			c2.462-2.175,5.356-3.578,8.683-3.886c2.2-0.204,2.332-0.235,2.534-2.475c1.021-11.358,1.996-22.719,2.332-34.124
			c0.101-3.41,0.142-6.821,0.268-10.23c0.037-1.007-0.321-1.449-1.279-1.827c-1.595-0.63-3.137-1.442-4.599-2.343
			c-0.803-0.496-1.337-0.404-2.005,0.106c-11.601,8.855-22.651,18.368-33.517,28.099c-0.452,0.405-0.873,0.845-1.316,1.261
			c-0.645,0.605-0.717,1.252-0.226,2c3.374,5.142,3.118,10.596,1.327,16.157c-1.225,3.803-3.497,7.104-5.266,10.644
			c-13.621,27.262-27.324,54.483-41.005,81.715c-0.22,0.438-0.478,0.856-0.798,1.425c-0.213-0.73,0.059-1.186,0.191-1.649
			c10.13-35.469,20.269-70.935,30.403-106.402c0.274-0.96,0.568-1.853,1.559-2.366c8.36-4.334,11.667-11.854,12.861-20.637
			c0.531-3.902,0.574-7.819-0.199-11.724c-0.497-2.509-1.461-4.823-2.593-7.086c-1.465-2.928-2.798-5.914-4.098-8.918
			c-0.898-2.076-1.231-4.299-1.905-6.431c-0.475-1.502-1.792-1.989-2.886-0.859c-4.382,4.528-9.853,7.532-15.006,10.998
			c-6.747,4.539-10.301,11.3-12.572,18.848c-1.156,3.843-1.648,7.746-0.781,11.764c0.522,2.415,1.498,4.619,2.631,6.769
			c0.491,0.932,0.599,1.8,0.308,2.815c-10.062,35.148-20.107,70.3-30.158,105.451c-0.089,0.31-0.212,0.61-0.383,1.096
			c-0.302-0.631-0.193-1.124-0.18-1.597c0.993-36.677,1.987-73.354,2.992-110.031c0.059-2.14-0.57-4.16-1.005-6.206
			c-2.527-11.897-6.133-23.51-9.331-35.23c-0.714-2.615-1.399-5.238-2.137-7.846c-0.207-0.73-0.283-1.723-1.346-1.701
			c-0.938,0.019-1.082,0.918-1.314,1.611c-1.084,3.236-2.139,6.481-3.218,9.719c-2.925,8.779-5.994,17.508-8.793,26.332
			c-2.167,6.83-3.276,13.707-3.437,20.898c-0.751,33.597-1.755,67.189-2.668,100.782c-0.002,0.093,0.016,0.191-0.004,0.28
			c-0.118,0.514,0.274,1.289-0.782,1.302c-0.902,0.011-0.9-0.546-0.974-1.181c-0.156-1.345-0.363-2.685-0.56-4.026
			c-1-6.826-4.028-12.789-7.839-18.419c-3.065-4.527-6.395-8.877-9.004-13.707c-1.291-2.39-2.462-4.828-3.446-7.361
			c-0.284-0.731-0.431-1.978-1.551-1.545c-1.195,0.462-0.439,1.522-0.15,2.292c2.202,5.867,5.436,11.167,9.033,16.26
			c2.805,3.972,5.575,7.956,7.792,12.311c2.314,4.546,3.247,9.427,3.865,14.408c0.046,0.374,0.251,0.884-0.46,0.932
			c-0.536,0.036-0.964,0.098-1.09-0.673c-1.231-7.545-5.429-13.582-9.748-19.64c-15.835-22.211-22.068-46.818-17.979-73.9
			c1.523-10.086,3.325-20.108,6.686-29.788c4.182-12.042,9.615-23.414,17.438-33.569c10.332-13.41,23.687-22.837,39.039-29.562
			c15.9-6.964,32.546-8.343,49.606-6.104c20.562,2.699,38.835,10.7,54.683,24.039c11.924,10.036,19.97,22.85,25.843,37.167
			C363.658,172.604,365.062,188.848,362.873,205.506z"/>
		<path style="fill:#513422;" d="M296.221,84.697c0.514,0.134,0.926-0.12,1.139-0.594c0.171-0.38,0.277-0.793,0.392-1.196
			c1.287-4.491,2.57-8.983,3.854-13.475c1.168-4.088,2.337-8.175,3.505-12.263c0.231-0.809,0.471-1.615,0.677-2.43
			c0.156-0.615,0.002-1.169-0.655-1.345c-0.66-0.177-1.045,0.245-1.248,0.839c-0.09,0.265-0.165,0.536-0.242,0.805
			c-2.62,9.163-5.24,18.327-7.857,27.491c-0.102,0.359-0.219,0.721-0.256,1.089C295.48,84.134,295.703,84.563,296.221,84.697z"/>
		<path style="fill:#513422;" d="M382.249,95.459c-0.6-0.396-1.059-0.034-1.491,0.346c-6.939,6.097-13.654,12.447-20.782,18.329
			c-0.538,0.444-1.186,1.028-0.566,1.756c0.641,0.753,1.237,0.125,1.784-0.327c7.055-5.824,13.716-12.095,20.571-18.145
			c0.315-0.278,0.641-0.547,0.786-0.963C382.659,96.059,382.602,95.692,382.249,95.459z"/>
		<path style="fill:#513422;" d="M216.833,50.231c2.631,8.805,4.987,17.693,7.917,26.408c0.089,0.264,0.168,0.541,0.311,0.775
			c0.213,0.348,0.558,0.496,0.964,0.397c0.351-0.085,0.529-0.357,0.63-0.686c0.076-0.626-0.14-1.201-0.332-1.773
			c-2.232-6.684-4.183-13.453-6.088-20.235c-0.555-1.976-1.167-3.936-1.764-5.9c-0.161-0.529-0.471-0.979-1.096-0.844
			c-0.691,0.149-0.799,0.701-0.683,1.317C216.729,49.872,216.78,50.053,216.833,50.231z"/>
		<path style="fill:#513422;" d="M323.068,124.633c-10.863-8.412-23.125-13.981-36.314-17.547
			c-7.883-2.131-16.003-2.802-24.134-3.178c-4.395-0.203-8.78-0.008-13.091,1.007c-0.701,0.165-1.491,0.411-1.244,1.342
			c0.233,0.88,1.004,0.619,1.645,0.48c2.793-0.605,5.615-1.01,8.474-0.962c10.477,0.177,20.911,0.706,30.908,4.31
			c1.29,0.465,2.657,0.405,3.954,0.854c7.093,2.456,13.78,5.777,20.311,9.43c3.761,2.104,7.299,4.532,10.361,7.6
			c0.587,0.588,1.184,0.962,1.769,0.111c0.187-0.606-0.041-1.019-0.382-1.353C324.592,126.01,323.877,125.26,323.068,124.633z"/>
		<path style="fill:#513422;" d="M261.892,99.787c1.026,0.015,2.056-0.038,3.079,0.025c14.524,0.9,28.341,4.692,41.703,10.289
			c3.662,1.534,7.24,3.26,10.563,5.467c0.588,0.391,1.201,0.594,1.604-0.2c0.151-0.589-0.093-0.988-0.49-1.269
			c-0.684-0.485-1.381-0.961-2.11-1.373c-6.744-3.804-13.892-6.654-21.254-9.001c-9.923-3.164-20.047-5.276-30.47-5.813
			c-0.928-0.048-1.866-0.002-2.794,0.072c-0.561,0.045-0.994,0.39-0.952,1.008C260.815,99.646,261.344,99.779,261.892,99.787z"/>
		<path style="fill:#513422;" d="M182.651,251.012c-1.323-2.026-2.648-4.051-3.209-6.456c-0.098-0.422-0.278-0.79-0.707-0.975
			c-0.649-0.224-1.27,0.31-1.123,1.136c0.544,3.061,2.219,5.58,4.03,8.013c0.262,0.352,0.725,0.473,1.134,0.222
			c0.469-0.287,0.512-0.753,0.307-1.227C182.973,251.473,182.803,251.245,182.651,251.012z"/>
		<path style="fill:#513422;" d="M310.861,282.096c-1.23,1.24-2.706,2.111-4.25,2.883c-0.831,0.415-1.681,0.793-2.513,1.206
			c-0.403,0.199-0.643,0.53-0.619,1.004c0.019,0.379,0.266,0.572,0.67,0.724c0.152-0.008,0.406,0.043,0.606-0.04
			c2.716-1.12,5.373-2.348,7.455-4.51c0.421-0.437,0.632-0.987,0.118-1.478C311.803,281.382,311.277,281.677,310.861,282.096z"/>
		<path style="fill:#513422;" d="M186.676,255.997c-0.188-0.196-0.436-0.334-0.631-0.48c-0.443-0.049-0.806,0.003-1.023,0.374
			c-0.318,0.546-0.042,0.999,0.31,1.386c1.565,1.723,3.113,3.455,4.234,5.52c0.312,0.575,0.696,1.285,1.482,0.859
			c0.835-0.453,0.475-1.185,0.128-1.82C189.982,259.654,188.387,257.78,186.676,255.997z"/>
		<path style="fill:#513422;" d="M299.016,287.956c-2.697,0.567-5.294,1.437-7.669,2.873c-0.526,0.318-0.823,0.821-0.445,1.413
			c0.346,0.541,0.896,0.446,1.368,0.177c2.12-1.211,4.414-1.955,6.754-2.589c0.453-0.123,0.889-0.302,1.077-0.877
			C300.148,288.237,299.734,287.805,299.016,287.956z"/>
		<path style="fill:#513422;" d="M329.326,271.996c-1.477,1.607-2.958,3.212-4.386,4.861c-0.455,0.526-0.419,1.118,0.259,1.48
			c0.502,0.14,0.866-0.055,1.182-0.35c1.565-1.464,2.915-3.122,4.282-4.764c0.368-0.442,0.456-0.963,0.018-1.381
			C330.222,271.405,329.71,271.578,329.326,271.996z"/>
		<path style="fill:#513422;" d="M169.145,226.368c-0.077-0.419-0.22-0.814-0.833-1.055c-0.66-0.023-1.096,0.368-0.999,1.172
			c0.257,2.122,0.556,4.24,1.104,6.311c0.15,0.567,0.444,1.096,1.153,0.94c0.705-0.155,0.76-0.741,0.656-1.331
			C169.875,230.39,169.513,228.378,169.145,226.368z"/>
		<path style="fill:#513422;" d="M250.046,101.167c1.626-0.426,3.273-0.637,4.955-0.601c0.53,0.011,1.025-0.095,1.267-0.717
			c0.142-0.774-0.351-1.064-1.025-1.115c-1.916-0.144-3.797,0.085-5.635,0.638c-0.574,0.173-1.052,0.523-0.897,1.2
			C248.872,101.285,249.463,101.32,250.046,101.167z"/>
		<path style="fill:#513422;" d="M323.492,118.215c-0.564-0.195-1.027-0.24-1.307,0.273c-0.301,0.552-0.068,1.012,0.409,1.31
			c1.541,0.964,2.967,2.06,4.212,3.393c0.337,0.361,0.818,0.518,1.251,0.16c0.478-0.395,0.441-0.935,0.089-1.371
			C326.845,120.372,325.224,119.148,323.492,118.215z"/>
		<path style="fill:#513422;" d="M239.922,105.989c-1.699,0.304-3.319,0.872-4.855,1.656c-0.537,0.274-0.923,0.746-0.628,1.362
			c0.303,0.634,0.889,0.574,1.444,0.307c1.386-0.669,2.84-1.136,4.328-1.514c0.419-0.106,0.779-0.304,0.946-0.813
			C241.18,106.179,240.696,105.851,239.922,105.989z"/>
		<path style="fill:#513422;" d="M332.819,132.586c-0.164-0.157-0.375-0.266-0.505-0.356c-0.47-0.096-0.827-0.035-1.059,0.322
			c-0.307,0.47-0.138,0.899,0.199,1.262c1.045,1.122,2.062,2.264,2.881,3.567c0.348,0.553,0.808,1.025,1.468,0.579
			c0.632-0.426,0.432-1.068,0.092-1.613C335.029,134.965,333.997,133.714,332.819,132.586z"/>
		<path style="fill:#513422;" d="M273.527,274.307c-0.542-0.284-1.033-0.043-1.298,0.457c-0.891,1.682-1.74,3.385-2.476,4.827
			c-0.268,0.816-0.23,1.336,0.323,1.595c0.569,0.266,1.007-0.076,1.26-0.563c0.856-1.648,1.693-3.306,2.505-4.976
			C274.078,275.158,274.091,274.603,273.527,274.307z"/>
		<path style="fill:#513422;" d="M281.028,248.353c-0.581-0.271-0.997,0.093-1.25,0.574c-0.801,1.52-1.568,3.058-2.245,4.388
			c-0.284,0.761-0.448,1.345,0.2,1.678c0.629,0.323,1.078-0.066,1.355-0.601c0.791-1.525,1.568-3.059,2.315-4.606
			C281.665,249.243,281.674,248.654,281.028,248.353z"/>
		<path style="fill:#513422;" d="M257.523,236.882c0.702,0.227,1.05-0.238,1.236-0.81c0.274-0.842,0.495-1.702,0.739-2.554
			c-0.001,0-0.003-0.001-0.004-0.001c0.256-0.897,0.535-1.789,0.761-2.693c0.132-0.532,0.069-1.073-0.549-1.266
			c-0.691-0.216-1.064,0.227-1.239,0.812c-0.519,1.744-1.018,3.495-1.496,5.25C256.826,236.153,256.911,236.684,257.523,236.882z"/>
		<path style="fill:#513422;" d="M217.011,296.23c-0.254-0.112-0.535-0.16-0.965-0.283c-1.348-0.274-2.86-0.594-4.413-0.581
			c-0.56,0.004-1.041,0.224-1.056,0.875c-0.013,0.558,0.379,0.842,0.883,0.922c1.707,0.269,3.415,0.532,5.128,0.759
			c0.502,0.066,0.938-0.137,1.039-0.71C217.714,296.717,217.424,296.413,217.011,296.23z"/>
		<path style="fill:#513422;" d="M255.567,309.744c0.594,0.259,1.231,0.422,1.569-0.311c0.299-0.649-0.173-1.081-0.696-1.338
			c-1.257-0.617-2.539-1.182-3.598-1.67c-0.939-0.194-1.818-0.753-2.207,0.205c-0.45,1.106,0.66,1.226,1.342,1.535
			C253.168,308.704,254.368,309.222,255.567,309.744z"/>
		<path style="fill:#513422;" d="M211.688,302.085c-1.321-0.293-2.652-0.544-3.981-0.802c-0.619-0.12-1.298-0.202-1.488,0.595
			c-0.212,0.893,0.519,1.065,0.902,1.186c1.584,0.325,2.909,0.603,4.237,0.867c0.626,0.125,1.309,0.167,1.498-0.602
			C213.074,302.441,212.335,302.229,211.688,302.085z"/>
		<path style="fill:#513422;" d="M257.039,315.408c-1.172-0.463-2.351-0.909-3.527-1.363c-0.002,0.005-0.004,0.01-0.006,0.016
			c-0.132-0.047-0.261-0.103-0.396-0.14c-0.63-0.173-1.362-0.474-1.68,0.379c-0.313,0.839,0.379,1.142,1.01,1.382
			c1.309,0.498,2.617,0.998,3.939,1.46c0.557,0.194,1.161,0.22,1.419-0.462C258.054,315.999,257.609,315.633,257.039,315.408z"/>
		<path style="fill:#513422;" d="M218.535,233.74c0.023-1.112,0.074-2.463,0.066-3.814c-0.003-0.447-0.271-0.811-0.77-0.852
			c-0.497-0.041-0.808,0.257-0.895,0.712c-0.264,1.38-0.32,2.778-0.202,4.175c0.042,0.504,0.373,0.87,0.937,0.848
			C218.177,234.79,218.367,234.41,218.535,233.74z"/>
		<path style="fill:#513422;" d="M206.955,319.523c-1.052-0.213-2.105-0.425-3.166-0.582c-0.618-0.092-1.311-0.065-1.43,0.734
			c-0.121,0.805,0.549,0.969,0.903,1.059c1.265,0.234,2.272,0.434,3.285,0.602c0.636,0.106,1.288,0.084,1.421-0.721
			C208.087,319.899,207.54,319.642,206.955,319.523z"/>
		<path style="fill:#513422;" d="M246.429,331.57c-0.264,0.572,0.002,1.011,0.533,1.256c0.677,0.313,1.377,0.576,2.067,0.86
			c0.002-0.005,0.004-0.009,0.006-0.014c0.389,0.158,0.773,0.331,1.168,0.472c0.554,0.197,1.149,0.314,1.466-0.333
			c0.321-0.656-0.122-1.097-0.659-1.332c-1.11-0.486-2.246-0.913-3.385-1.329C247.146,330.974,246.663,331.062,246.429,331.57z"/>
		<path style="fill:#513422;" d="M327.786,206.874c0.051-0.675-0.381-1.008-1.012-1.003c-1.355,0.011-2.563,0.501-3.57,1.401
			c-0.436,0.389-0.491,0.908,0.007,1.336C323.683,209.011,327.64,207.54,327.786,206.874z"/>
		<path style="fill:#513422;" d="M301.556,197.366c0.056,0.442,0.419,0.726,0.904,0.719c0.504-0.007,0.729-0.344,0.864-0.859
			c0.025-1.312-0.234-2.619-1.103-3.738c-0.277-0.357-0.688-0.494-1.125-0.267c-0.44,0.229-0.59,0.665-0.403,1.07
			C301.148,195.276,301.418,196.292,301.556,197.366z"/>
		<path style="fill:#513422;" d="M215.552,340.465c-0.531-0.275-1.109-0.46-1.751-0.718c-0.461-0.09-1.001-0.241-1.549-0.29
			c-0.54-0.049-1.041,0.113-1.15,0.746c-0.098,0.569,0.291,0.86,0.756,1.008c1.013,0.323,2.033,0.629,3.062,0.896
			c0.475,0.124,0.953,0.036,1.158-0.498C216.282,341.076,215.985,340.689,215.552,340.465z"/>
		<path style="fill:#513422;" d="M233.013,345.458c-1.144-0.656-2.407-0.944-3.714-0.995c-0.447-0.017-0.801,0.238-0.867,0.734
			c-0.057,0.424,0.162,0.744,0.531,0.881c0.561,0.208,1.149,0.341,1.726,0.506c-0.001,0.003-0.002,0.006-0.002,0.009
			c0.534,0.152,1.062,0.329,1.602,0.45c0.488,0.109,0.943,0.025,1.145-0.514C233.607,346.065,233.389,345.674,233.013,345.458z"/>
		<path style="fill:#513422;" d="M210.757,156.262c-0.08,0.491,0.105,0.94,0.655,1.07c0.474,0.111,0.859-0.13,0.997-0.557
			c0.44-1.365,0.849-2.741,1.217-4.127c0.127-0.478-0.038-0.955-0.578-1.113c-0.618-0.181-0.972,0.206-1.156,0.725
			c-0.215,0.61-0.365,1.243-0.543,1.867c-0.031-0.008-0.062-0.016-0.094-0.025C211.085,154.821,210.875,155.534,210.757,156.262z"/>
		<path style="fill:#513422;" d="M260.582,191.07c0.614,0.176,0.991-0.186,1.175-0.714c0.23-0.659,0.393-1.341,0.586-2.013
			c-0.003-0.001-0.005-0.001-0.007-0.002c0.205-0.717,0.448-1.425,0.601-2.153c0.103-0.487-0.049-0.948-0.594-1.119
			c-0.548-0.172-0.953,0.108-1.106,0.589c-0.451,1.419-0.862,2.852-1.238,4.293C259.874,190.433,260.033,190.913,260.582,191.07z"/>
		<path style="fill:#513422;" d="M213.263,351.849c-1.058-0.352-2.134-0.658-3.217-0.924c-0.487-0.12-0.958,0.049-1.117,0.591
			c-0.181,0.616,0.179,0.976,0.717,1.164c0.483,0.169,0.983,0.288,1.476,0.428c0.001-0.003,0.002-0.007,0.003-0.01
			c0.537,0.154,1.067,0.348,1.614,0.449c0.491,0.09,0.95-0.052,1.12-0.594C214.031,352.404,213.74,352.007,213.263,351.849z"/>
		<path style="fill:#513422;" d="M228.511,356.174c-0.973-0.317-1.961-0.598-2.956-0.838c-0.533-0.128-1.065-0.024-1.223,0.613
			c-0.155,0.621,0.243,0.962,0.766,1.149c0.482,0.172,0.983,0.288,1.476,0.429c-0.001,0.002-0.001,0.004-0.002,0.006
			c0.448,0.128,0.893,0.27,1.345,0.381c0.593,0.145,1.161,0.115,1.356-0.587C229.444,356.707,229.028,356.343,228.511,356.174z"/>
	</g>
</g>
<g id="TEXTS">
	<g>
		<g>
			<g>
				<path style="fill:#513422;" d="M107.905,390.909c1.575,0,2.869,0.232,3.883,0.697c1.014,0.466,1.915,1.009,2.702,1.629
					c0.477,0.357,0.841,0.399,1.091,0.125s0.423-0.925,0.519-1.95h0.823c-0.048,0.883-0.084,1.956-0.107,3.221
					c-0.024,1.265-0.036,2.935-0.036,5.011h-0.823c-0.167-1.026-0.322-1.844-0.465-2.452s-0.316-1.127-0.519-1.557
					c-0.203-0.43-0.471-0.859-0.805-1.288c-0.74-0.979-1.67-1.688-2.792-2.13c-1.122-0.441-2.303-0.662-3.543-0.662
					c-1.169,0-2.225,0.293-3.167,0.877c-0.943,0.585-1.753,1.426-2.434,2.523c-0.68,1.098-1.205,2.422-1.575,3.973
					c-0.37,1.551-0.555,3.292-0.555,5.225c0,2.004,0.203,3.775,0.608,5.314c0.405,1.539,0.972,2.834,1.7,3.883
					c0.728,1.051,1.586,1.844,2.577,2.381c0.99,0.536,2.058,0.805,3.203,0.805c1.074,0,2.195-0.215,3.364-0.645
					c1.169-0.429,2.088-1.121,2.756-2.075c0.524-0.691,0.889-1.443,1.092-2.255c0.202-0.811,0.387-1.944,0.555-3.399h0.823
					c0,2.171,0.012,3.919,0.036,5.242c0.023,1.324,0.059,2.44,0.107,3.347h-0.823c-0.096-1.025-0.257-1.67-0.483-1.933
					c-0.227-0.263-0.603-0.227-1.127,0.107c-0.883,0.621-1.82,1.163-2.81,1.628c-0.99,0.466-2.261,0.698-3.812,0.698
					c-2.267,0-4.253-0.513-5.958-1.539c-1.707-1.025-3.031-2.505-3.973-4.438c-0.943-1.933-1.414-4.259-1.414-6.979
					c0-2.672,0.489-5.011,1.467-7.015c0.978-2.004,2.32-3.566,4.026-4.688C103.724,391.47,105.687,390.909,107.905,390.909z"/>
				<path style="fill:#513422;" d="M131.418,397.815c0.645,0,1.211,0.132,1.7,0.395c0.489,0.263,0.871,0.603,1.145,1.02
					c0.274,0.418,0.412,0.89,0.412,1.414c0,0.597-0.185,1.121-0.555,1.574c-0.37,0.454-0.865,0.68-1.485,0.68
					c-0.501,0-0.943-0.16-1.324-0.482c-0.382-0.322-0.572-0.781-0.572-1.378c0-0.453,0.125-0.841,0.375-1.163
					s0.531-0.578,0.841-0.77c-0.167-0.238-0.418-0.358-0.752-0.358c-0.74,0-1.419,0.222-2.04,0.662
					c-0.621,0.442-1.146,1.009-1.575,1.7c-0.43,0.692-0.764,1.426-1.002,2.201c-0.239,0.775-0.357,1.497-0.357,2.165v7.587
					c0,1.17,0.34,1.951,1.02,2.345c0.68,0.394,1.604,0.59,2.774,0.59v0.752c-0.549-0.023-1.324-0.054-2.326-0.09
					c-1.002-0.035-2.064-0.054-3.186-0.054c-0.811,0-1.617,0.019-2.416,0.054c-0.8,0.036-1.402,0.066-1.807,0.09v-0.752
					c0.978,0,1.676-0.179,2.093-0.536c0.417-0.358,0.626-1.038,0.626-2.04v-11.202c0-1.073-0.191-1.866-0.573-2.38
					c-0.382-0.513-1.098-0.77-2.147-0.77v-0.751c0.763,0.071,1.503,0.107,2.219,0.107c0.691,0,1.354-0.042,1.986-0.126
					c0.632-0.083,1.21-0.208,1.736-0.376v4.474c0.262-0.691,0.638-1.39,1.127-2.094c0.489-0.703,1.08-1.294,1.771-1.771
					C129.819,398.055,130.583,397.815,131.418,397.815z"/>
				<path style="fill:#513422;" d="M144.91,397.815c2.099,0,3.74,0.639,4.921,1.915c1.181,1.276,1.771,3.263,1.771,5.959h-12.633
					l-0.036-0.68h9.233c0.047-1.169-0.048-2.249-0.286-3.239c-0.239-0.989-0.615-1.783-1.127-2.38
					c-0.513-0.596-1.175-0.895-1.986-0.895c-1.098,0-2.07,0.549-2.917,1.646c-0.848,1.098-1.354,2.839-1.521,5.225l0.107,0.144
					c-0.048,0.357-0.083,0.751-0.107,1.181s-0.036,0.859-0.036,1.288c0,1.623,0.262,3.019,0.788,4.188
					c0.524,1.169,1.21,2.058,2.058,2.666c0.847,0.608,1.724,0.913,2.63,0.913c0.716,0,1.396-0.113,2.04-0.34s1.24-0.603,1.79-1.128
					c0.548-0.524,1.025-1.229,1.432-2.111l0.716,0.286c-0.263,0.788-0.692,1.552-1.289,2.291c-0.597,0.739-1.348,1.342-2.255,1.807
					c-0.907,0.466-1.957,0.698-3.149,0.698c-1.718,0-3.191-0.394-4.42-1.181c-1.229-0.788-2.171-1.879-2.827-3.275
					c-0.656-1.396-0.984-3-0.984-4.813c0-2.099,0.333-3.906,1.002-5.422c0.667-1.515,1.61-2.684,2.827-3.507
					S143.288,397.815,144.91,397.815z"/>
				<path style="fill:#513422;" d="M159.404,416.999c-0.979,0-1.825-0.186-2.541-0.556c-0.715-0.369-1.258-0.888-1.628-1.557
					c-0.371-0.667-0.555-1.443-0.555-2.326c0-1.05,0.244-1.908,0.733-2.576c0.489-0.668,1.115-1.205,1.879-1.611
					c0.763-0.405,1.568-0.745,2.416-1.02c0.847-0.274,1.652-0.537,2.416-0.787c0.763-0.251,1.39-0.543,1.879-0.877
					c0.489-0.334,0.733-0.775,0.733-1.324v-2.219c0-1.002-0.149-1.766-0.447-2.291c-0.298-0.524-0.698-0.876-1.199-1.056
					c-0.501-0.179-1.062-0.269-1.682-0.269c-0.597,0-1.235,0.084-1.915,0.251c-0.68,0.167-1.223,0.514-1.628,1.038
					c0.453,0.096,0.847,0.334,1.181,0.716s0.501,0.871,0.501,1.467c0,0.597-0.191,1.068-0.573,1.414
					c-0.382,0.346-0.871,0.519-1.467,0.519c-0.692,0-1.199-0.22-1.521-0.662c-0.322-0.441-0.483-0.936-0.483-1.485
					c0-0.62,0.155-1.121,0.465-1.503c0.31-0.381,0.704-0.739,1.181-1.073c0.548-0.382,1.258-0.71,2.129-0.984
					c0.871-0.274,1.855-0.412,2.953-0.412c0.978,0,1.813,0.114,2.505,0.341s1.265,0.555,1.718,0.983
					c0.62,0.573,1.025,1.271,1.217,2.094c0.19,0.823,0.286,1.808,0.286,2.953v9.949c0,0.597,0.089,1.025,0.269,1.288
					c0.179,0.263,0.459,0.394,0.841,0.394c0.262,0,0.513-0.06,0.751-0.179c0.238-0.119,0.524-0.31,0.859-0.572l0.394,0.608
					c-0.501,0.382-0.979,0.697-1.432,0.948c-0.454,0.25-1.062,0.376-1.825,0.376c-0.692,0-1.265-0.12-1.718-0.358
					c-0.454-0.238-0.794-0.591-1.02-1.056c-0.227-0.465-0.34-1.056-0.34-1.771c-0.644,1.073-1.414,1.873-2.308,2.397
					C161.534,416.736,160.526,416.999,159.404,416.999z M160.693,415.567c0.788,0,1.521-0.227,2.201-0.681
					c0.68-0.452,1.294-1.133,1.843-2.04v-7.014c-0.286,0.405-0.704,0.745-1.252,1.02c-0.549,0.274-1.145,0.549-1.79,0.823
					c-0.644,0.274-1.259,0.597-1.843,0.966c-0.585,0.37-1.068,0.854-1.45,1.45c-0.382,0.597-0.573,1.372-0.573,2.326
					s0.256,1.718,0.77,2.29C159.112,415.28,159.81,415.567,160.693,415.567z"/>
				<path style="fill:#513422;" d="M177.906,392.376v5.977h5.297v0.716h-5.297v13.851c0,1.121,0.203,1.909,0.608,2.361
					c0.405,0.454,0.966,0.681,1.682,0.681s1.336-0.292,1.861-0.877c0.524-0.584,0.978-1.568,1.36-2.953l0.716,0.18
					c-0.239,1.384-0.71,2.553-1.414,3.507c-0.704,0.954-1.784,1.432-3.239,1.432c-0.812,0-1.479-0.102-2.004-0.304
					c-0.525-0.203-0.99-0.495-1.396-0.877c-0.525-0.549-0.889-1.205-1.092-1.969s-0.304-1.777-0.304-3.042v-11.989h-3.436v-0.716
					h3.436v-5.476c0.596-0.023,1.169-0.071,1.718-0.143C176.952,392.662,177.453,392.543,177.906,392.376z"/>
				<path style="fill:#513422;" d="M190.754,397.923v15.497c0,1.002,0.208,1.682,0.626,2.04c0.417,0.357,1.115,0.536,2.094,0.536
					v0.752c-0.406-0.023-1.02-0.054-1.843-0.09c-0.823-0.035-1.652-0.054-2.487-0.054c-0.811,0-1.634,0.019-2.469,0.054
					c-0.835,0.036-1.456,0.066-1.861,0.09v-0.752c0.978,0,1.676-0.179,2.093-0.536c0.417-0.358,0.626-1.038,0.626-2.04v-11.202
					c0-1.073-0.191-1.866-0.573-2.38c-0.382-0.513-1.098-0.77-2.147-0.77v-0.751c0.763,0.071,1.503,0.107,2.219,0.107
					c0.691,0,1.354-0.042,1.986-0.126C189.65,398.216,190.229,398.091,190.754,397.923z M188.893,389.37
					c0.62,0,1.157,0.227,1.61,0.68s0.68,0.99,0.68,1.61c0,0.621-0.227,1.157-0.68,1.61c-0.453,0.454-0.99,0.681-1.61,0.681
					c-0.621,0-1.157-0.227-1.61-0.681c-0.454-0.453-0.68-0.989-0.68-1.61c0-0.62,0.227-1.157,0.68-1.61
					C187.736,389.597,188.272,389.37,188.893,389.37z"/>
				<path style="fill:#513422;" d="M211.654,398.317v0.716c-0.453,0.048-0.871,0.25-1.252,0.608c-0.382,0.357-0.74,0.99-1.074,1.896
					l-5.869,15.389c-0.096,0-0.191,0-0.287,0s-0.203,0-0.322,0l-6.585-15.854c-0.382-0.93-0.758-1.496-1.127-1.699
					c-0.37-0.203-0.686-0.305-0.949-0.305v-0.751c0.477,0.023,0.972,0.054,1.485,0.089c0.513,0.036,1.067,0.054,1.664,0.054
					c0.739,0,1.521-0.012,2.344-0.035c0.823-0.024,1.593-0.06,2.309-0.107v0.751c-0.597,0-1.127,0.042-1.593,0.125
					c-0.465,0.084-0.764,0.317-0.895,0.698c-0.131,0.382-0.018,1.038,0.34,1.969l4.474,11.059l-0.215,0.179l4.08-10.701
					c0.31-0.787,0.435-1.413,0.375-1.879c-0.06-0.465-0.298-0.816-0.716-1.056c-0.417-0.238-1.056-0.381-1.915-0.429v-0.716
					c0.43,0.023,0.799,0.042,1.109,0.054s0.614,0.023,0.913,0.035c0.298,0.013,0.626,0.019,0.984,0.019
					c0.548,0,1.043-0.013,1.485-0.036C210.861,398.365,211.272,398.341,211.654,398.317z"/>
				<path style="fill:#513422;" d="M221.496,397.815c2.099,0,3.74,0.639,4.921,1.915c1.181,1.276,1.771,3.263,1.771,5.959h-12.633
					l-0.036-0.68h9.233c0.047-1.169-0.048-2.249-0.286-3.239c-0.239-0.989-0.615-1.783-1.127-2.38
					c-0.513-0.596-1.175-0.895-1.986-0.895c-1.098,0-2.07,0.549-2.917,1.646c-0.848,1.098-1.354,2.839-1.521,5.225l0.107,0.144
					c-0.048,0.357-0.083,0.751-0.107,1.181s-0.036,0.859-0.036,1.288c0,1.623,0.262,3.019,0.788,4.188
					c0.524,1.169,1.21,2.058,2.058,2.666c0.847,0.608,1.724,0.913,2.63,0.913c0.716,0,1.396-0.113,2.04-0.34s1.24-0.603,1.79-1.128
					c0.548-0.524,1.025-1.229,1.432-2.111l0.716,0.286c-0.263,0.788-0.692,1.552-1.289,2.291c-0.597,0.739-1.348,1.342-2.255,1.807
					c-0.907,0.466-1.957,0.698-3.149,0.698c-1.718,0-3.191-0.394-4.42-1.181c-1.229-0.788-2.171-1.879-2.827-3.275
					c-0.656-1.396-0.984-3-0.984-4.813c0-2.099,0.333-3.906,1.002-5.422c0.667-1.515,1.61-2.684,2.827-3.507
					S219.874,397.815,221.496,397.815z"/>
				<path style="fill:#513422;" d="M247.943,391.016c1.193,0,2.1,0.138,2.72,0.412c0.62,0.274,1.168,0.579,1.646,0.912
					c0.287,0.168,0.52,0.293,0.697,0.376c0.18,0.084,0.354,0.126,0.52,0.126c0.238,0,0.412-0.131,0.52-0.395
					c0.107-0.262,0.197-0.655,0.268-1.181h0.824c-0.025,0.406-0.055,0.889-0.09,1.449c-0.035,0.562-0.061,1.301-0.072,2.219
					c-0.012,0.919-0.018,2.13-0.018,3.633h-0.822c-0.072-1.146-0.322-2.242-0.752-3.292s-1.057-1.909-1.88-2.577
					c-0.822-0.668-1.902-1.002-3.238-1.002c-1.265,0-2.308,0.382-3.131,1.146s-1.235,1.766-1.235,3.006
					c0,1.073,0.274,1.975,0.823,2.702c0.548,0.728,1.282,1.384,2.201,1.968c0.918,0.585,1.915,1.212,2.988,1.879
					c1.24,0.765,2.345,1.521,3.31,2.272c0.967,0.752,1.73,1.581,2.291,2.487c0.561,0.907,0.842,2.005,0.842,3.293
					c0,1.527-0.348,2.792-1.039,3.794s-1.609,1.753-2.755,2.254c-1.146,0.502-2.41,0.752-3.794,0.752
					c-1.265,0-2.267-0.144-3.006-0.43c-0.74-0.286-1.373-0.584-1.897-0.895c-0.525-0.334-0.931-0.501-1.217-0.501
					c-0.239,0-0.412,0.132-0.519,0.394c-0.107,0.263-0.197,0.656-0.269,1.182h-0.823c0.047-0.502,0.077-1.092,0.089-1.772
					c0.012-0.68,0.023-1.568,0.036-2.666c0.012-1.097,0.018-2.48,0.018-4.151h0.823c0.095,1.432,0.363,2.769,0.805,4.009
					c0.441,1.24,1.121,2.236,2.04,2.988c0.918,0.751,2.142,1.127,3.668,1.127c0.788,0,1.533-0.161,2.237-0.483
					c0.703-0.321,1.282-0.835,1.736-1.538c0.453-0.704,0.68-1.616,0.68-2.738c0-0.979-0.232-1.831-0.698-2.559
					s-1.115-1.408-1.95-2.04c-0.835-0.632-1.813-1.282-2.935-1.95c-1.122-0.692-2.171-1.396-3.149-2.112
					c-0.979-0.716-1.76-1.544-2.344-2.487c-0.585-0.942-0.877-2.081-0.877-3.418c0-1.407,0.316-2.57,0.948-3.489
					c0.632-0.918,1.461-1.598,2.487-2.04C245.677,391.237,246.774,391.016,247.943,391.016z"/>
				<path style="fill:#513422;" d="M264.907,392.376v5.977h5.297v0.716h-5.297v13.851c0,1.121,0.202,1.909,0.608,2.361
					c0.405,0.454,0.967,0.681,1.682,0.681c0.716,0,1.336-0.292,1.861-0.877c0.524-0.584,0.979-1.568,1.36-2.953l0.716,0.18
					c-0.239,1.384-0.711,2.553-1.414,3.507c-0.704,0.954-1.784,1.432-3.238,1.432c-0.812,0-1.48-0.102-2.005-0.304
					c-0.524-0.203-0.99-0.495-1.396-0.877c-0.525-0.549-0.889-1.205-1.092-1.969s-0.304-1.777-0.304-3.042v-11.989h-3.436v-0.716
					h3.436v-5.476c0.596-0.023,1.169-0.071,1.718-0.143C263.953,392.662,264.454,392.543,264.907,392.376z"/>
				<path style="fill:#513422;" d="M276.896,416.999c-0.979,0-1.825-0.186-2.541-0.556c-0.716-0.369-1.259-0.888-1.629-1.557
					c-0.37-0.667-0.555-1.443-0.555-2.326c0-1.05,0.244-1.908,0.734-2.576c0.488-0.668,1.114-1.205,1.879-1.611
					c0.763-0.405,1.568-0.745,2.415-1.02s1.652-0.537,2.416-0.787c0.764-0.251,1.39-0.543,1.879-0.877
					c0.488-0.334,0.733-0.775,0.733-1.324v-2.219c0-1.002-0.149-1.766-0.447-2.291c-0.299-0.524-0.698-0.876-1.199-1.056
					c-0.501-0.179-1.062-0.269-1.682-0.269c-0.597,0-1.234,0.084-1.915,0.251c-0.68,0.167-1.223,0.514-1.628,1.038
					c0.453,0.096,0.847,0.334,1.181,0.716s0.501,0.871,0.501,1.467c0,0.597-0.191,1.068-0.572,1.414
					c-0.382,0.346-0.871,0.519-1.468,0.519c-0.691,0-1.198-0.22-1.521-0.662c-0.322-0.441-0.483-0.936-0.483-1.485
					c0-0.62,0.155-1.121,0.466-1.503c0.31-0.381,0.703-0.739,1.181-1.073c0.549-0.382,1.258-0.71,2.129-0.984
					s1.855-0.412,2.953-0.412c0.978,0,1.813,0.114,2.505,0.341s1.265,0.555,1.718,0.983c0.62,0.573,1.025,1.271,1.217,2.094
					s0.286,1.808,0.286,2.953v9.949c0,0.597,0.09,1.025,0.269,1.288c0.18,0.263,0.459,0.394,0.842,0.394
					c0.262,0,0.513-0.06,0.751-0.179s0.524-0.31,0.859-0.572l0.394,0.608c-0.501,0.382-0.979,0.697-1.432,0.948
					c-0.454,0.25-1.063,0.376-1.825,0.376c-0.692,0-1.265-0.12-1.718-0.358c-0.454-0.238-0.794-0.591-1.021-1.056
					s-0.34-1.056-0.34-1.771c-0.644,1.073-1.413,1.873-2.309,2.397C279.025,416.736,278.018,416.999,276.896,416.999z
					 M278.185,415.567c0.787,0,1.521-0.227,2.201-0.681c0.68-0.452,1.294-1.133,1.843-2.04v-7.014
					c-0.286,0.405-0.704,0.745-1.252,1.02c-0.55,0.274-1.146,0.549-1.79,0.823s-1.259,0.597-1.843,0.966
					c-0.585,0.37-1.068,0.854-1.449,1.45c-0.383,0.597-0.573,1.372-0.573,2.326s0.256,1.718,0.77,2.29
					C276.604,415.28,277.302,415.567,278.185,415.567z"/>
				<path style="fill:#513422;" d="M295.398,392.376v5.977h5.297v0.716h-5.297v13.851c0,1.121,0.202,1.909,0.608,2.361
					c0.405,0.454,0.967,0.681,1.682,0.681c0.716,0,1.336-0.292,1.861-0.877c0.524-0.584,0.979-1.568,1.36-2.953l0.716,0.18
					c-0.239,1.384-0.711,2.553-1.414,3.507c-0.704,0.954-1.784,1.432-3.238,1.432c-0.812,0-1.48-0.102-2.005-0.304
					c-0.524-0.203-0.99-0.495-1.396-0.877c-0.525-0.549-0.889-1.205-1.092-1.969s-0.304-1.777-0.304-3.042v-11.989h-3.436v-0.716
					h3.436v-5.476c0.596-0.023,1.169-0.071,1.718-0.143C294.444,392.662,294.945,392.543,295.398,392.376z"/>
				<path style="fill:#513422;" d="M308.245,397.923v15.497c0,1.002,0.209,1.682,0.627,2.04c0.417,0.357,1.114,0.536,2.093,0.536
					v0.752c-0.405-0.023-1.02-0.054-1.843-0.09c-0.823-0.035-1.652-0.054-2.487-0.054c-0.812,0-1.635,0.019-2.47,0.054
					c-0.835,0.036-1.455,0.066-1.86,0.09v-0.752c0.978,0,1.676-0.179,2.094-0.536c0.417-0.358,0.626-1.038,0.626-2.04v-11.202
					c0-1.073-0.191-1.866-0.572-2.38c-0.382-0.513-1.098-0.77-2.147-0.77v-0.751c0.763,0.071,1.503,0.107,2.219,0.107
					c0.691,0,1.354-0.042,1.986-0.126C307.142,398.216,307.721,398.091,308.245,397.923z M306.385,389.37
					c0.62,0,1.156,0.227,1.61,0.68c0.453,0.453,0.68,0.99,0.68,1.61c0,0.621-0.227,1.157-0.68,1.61
					c-0.454,0.454-0.99,0.681-1.61,0.681c-0.621,0-1.158-0.227-1.611-0.681c-0.453-0.453-0.68-0.989-0.68-1.61
					c0-0.62,0.227-1.157,0.68-1.61S305.764,389.37,306.385,389.37z"/>
				<path style="fill:#513422;" d="M321.559,397.815c1.527,0,2.899,0.335,4.116,1.003s2.188,1.718,2.917,3.149
					c0.728,1.431,1.091,3.292,1.091,5.583c0,2.29-0.363,4.146-1.091,5.564c-0.729,1.42-1.7,2.464-2.917,3.132
					s-2.589,1.002-4.116,1.002c-1.503,0-2.869-0.334-4.098-1.002s-2.207-1.712-2.935-3.132c-0.728-1.419-1.092-3.274-1.092-5.564
					c0-2.291,0.364-4.152,1.092-5.583c0.728-1.432,1.706-2.481,2.935-3.149S320.056,397.815,321.559,397.815z M321.559,398.531
					c-1.359,0-2.476,0.704-3.346,2.112c-0.871,1.407-1.307,3.71-1.307,6.907s0.436,5.493,1.307,6.889
					c0.87,1.396,1.986,2.094,3.346,2.094c1.36,0,2.476-0.698,3.347-2.094s1.307-3.691,1.307-6.889s-0.436-5.5-1.307-6.907
					C324.034,399.235,322.919,398.531,321.559,398.531z"/>
				<path style="fill:#513422;" d="M344.428,397.815c0.907,0,1.664,0.12,2.272,0.358s1.115,0.572,1.521,1.002
					c0.453,0.478,0.775,1.074,0.966,1.789c0.191,0.716,0.287,1.683,0.287,2.899v9.556c0,1.002,0.208,1.682,0.626,2.04
					c0.417,0.357,1.115,0.536,2.094,0.536v0.752c-0.406-0.023-1.026-0.054-1.861-0.09c-0.835-0.035-1.646-0.054-2.434-0.054
					s-1.557,0.019-2.309,0.054c-0.751,0.036-1.318,0.066-1.699,0.09v-0.752c0.858,0,1.467-0.179,1.825-0.536
					c0.357-0.358,0.536-1.038,0.536-2.04v-10.343c0-0.739-0.06-1.42-0.179-2.04s-0.388-1.121-0.805-1.503
					c-0.418-0.382-1.057-0.573-1.915-0.573c-1.002,0-1.879,0.286-2.631,0.859c-0.751,0.572-1.336,1.354-1.753,2.344
					c-0.418,0.99-0.627,2.094-0.627,3.311v7.945c0,1.002,0.179,1.682,0.537,2.04c0.357,0.357,0.966,0.536,1.825,0.536v0.752
					c-0.382-0.023-0.948-0.054-1.7-0.09c-0.751-0.035-1.521-0.054-2.309-0.054c-0.787,0-1.599,0.019-2.434,0.054
					c-0.835,0.036-1.455,0.066-1.86,0.09v-0.752c0.978,0,1.676-0.179,2.094-0.536c0.417-0.358,0.626-1.038,0.626-2.04v-11.202
					c0-1.073-0.191-1.866-0.572-2.38c-0.382-0.513-1.098-0.77-2.147-0.77v-0.751c0.763,0.071,1.503,0.107,2.219,0.107
					c0.691,0,1.354-0.042,1.986-0.126c0.632-0.083,1.211-0.208,1.735-0.376v4.224c0.62-1.622,1.485-2.75,2.595-3.382
					S343.211,397.815,344.428,397.815z"/>
				<path style="fill:#513422;" d="M362.465,397.815c2.1,0,3.74,0.639,4.921,1.915s1.771,3.263,1.771,5.959h-12.633l-0.036-0.68
					h9.233c0.048-1.169-0.048-2.249-0.286-3.239c-0.239-0.989-0.614-1.783-1.128-2.38c-0.513-0.596-1.175-0.895-1.985-0.895
					c-1.099,0-2.07,0.549-2.917,1.646c-0.848,1.098-1.354,2.839-1.521,5.225l0.107,0.144c-0.048,0.357-0.084,0.751-0.107,1.181
					s-0.035,0.859-0.035,1.288c0,1.623,0.262,3.019,0.787,4.188c0.524,1.169,1.211,2.058,2.058,2.666s1.724,0.913,2.631,0.913
					c0.716,0,1.396-0.113,2.04-0.34c0.644-0.227,1.24-0.603,1.789-1.128c0.549-0.524,1.025-1.229,1.432-2.111l0.716,0.286
					c-0.263,0.788-0.692,1.552-1.289,2.291s-1.348,1.342-2.254,1.807c-0.907,0.466-1.957,0.698-3.149,0.698
					c-1.718,0-3.191-0.394-4.42-1.181c-1.229-0.788-2.172-1.879-2.827-3.275c-0.657-1.396-0.984-3-0.984-4.813
					c0-2.099,0.334-3.906,1.002-5.422c0.668-1.515,1.61-2.684,2.827-3.507S360.842,397.815,362.465,397.815z"/>
				<path style="fill:#513422;" d="M383.007,397.815c0.645,0,1.211,0.132,1.7,0.395c0.488,0.263,0.87,0.603,1.146,1.02
					c0.273,0.418,0.411,0.89,0.411,1.414c0,0.597-0.185,1.121-0.555,1.574c-0.37,0.454-0.865,0.68-1.485,0.68
					c-0.501,0-0.942-0.16-1.324-0.482s-0.572-0.781-0.572-1.378c0-0.453,0.125-0.841,0.376-1.163c0.25-0.322,0.53-0.578,0.841-0.77
					c-0.167-0.238-0.418-0.358-0.752-0.358c-0.739,0-1.42,0.222-2.04,0.662c-0.62,0.442-1.145,1.009-1.574,1.7
					c-0.43,0.692-0.764,1.426-1.002,2.201c-0.239,0.775-0.358,1.497-0.358,2.165v7.587c0,1.17,0.34,1.951,1.021,2.345
					c0.68,0.394,1.604,0.59,2.773,0.59v0.752c-0.549-0.023-1.324-0.054-2.326-0.09c-1.002-0.035-2.064-0.054-3.186-0.054
					c-0.812,0-1.616,0.019-2.416,0.054c-0.799,0.036-1.401,0.066-1.807,0.09v-0.752c0.978,0,1.676-0.179,2.094-0.536
					c0.417-0.358,0.626-1.038,0.626-2.04v-11.202c0-1.073-0.191-1.866-0.572-2.38c-0.382-0.513-1.098-0.77-2.147-0.77v-0.751
					c0.763,0.071,1.503,0.107,2.219,0.107c0.691,0,1.354-0.042,1.986-0.126c0.632-0.083,1.211-0.208,1.735-0.376v4.474
					c0.263-0.691,0.639-1.39,1.128-2.094c0.488-0.703,1.079-1.294,1.771-1.771C381.408,398.055,382.172,397.815,383.007,397.815z"/>
				<path style="fill:#513422;" d="M404.444,398.317v0.716c-0.454,0.048-0.871,0.25-1.253,0.608
					c-0.382,0.357-0.739,0.99-1.073,1.896l-5.869,15.389h-0.608l-6.586-15.854c-0.453-0.93-0.9-1.496-1.342-1.699
					s-0.805-0.305-1.092-0.305v-0.751c0.525,0.071,1.074,0.125,1.646,0.16c0.573,0.036,1.193,0.054,1.861,0.054
					c0.739,0,1.521-0.023,2.344-0.071s1.593-0.095,2.309-0.143v0.751c-0.597,0-1.127,0.042-1.593,0.125
					c-0.465,0.084-0.758,0.335-0.877,0.752c-0.119,0.418,0.023,1.127,0.43,2.13l4.402,10.915l-0.215,0.071l4.08-10.665
					c0.31-0.787,0.435-1.413,0.375-1.879c-0.06-0.465-0.304-0.816-0.733-1.056c-0.43-0.238-1.073-0.381-1.933-0.429v-0.716
					c0.43,0.023,0.8,0.042,1.109,0.054c0.311,0.012,0.614,0.023,0.913,0.035c0.298,0.013,0.626,0.019,0.984,0.019
					c0.548,0,1.043-0.013,1.485-0.036C403.65,398.365,404.063,398.341,404.444,398.317z M396.249,416.927l-1.217,3.114
					c-0.239,0.596-0.483,1.097-0.734,1.503c-0.25,0.405-0.519,0.739-0.805,1.002c-0.382,0.357-0.836,0.603-1.36,0.733
					c-0.525,0.131-1.002,0.197-1.432,0.197c-0.453,0-0.865-0.084-1.234-0.251c-0.37-0.167-0.662-0.411-0.877-0.733
					s-0.322-0.71-0.322-1.163c0-0.572,0.167-1.032,0.501-1.378c0.334-0.347,0.8-0.519,1.396-0.519c0.501,0,0.93,0.143,1.288,0.429
					c0.357,0.287,0.537,0.704,0.537,1.253c0,0.405-0.096,0.739-0.287,1.002c-0.19,0.263-0.417,0.466-0.68,0.608
					c0.048,0.023,0.09,0.036,0.125,0.036c0.036,0,0.065,0,0.09,0c0.645,0,1.217-0.221,1.718-0.662
					c0.501-0.442,0.942-1.151,1.324-2.13l1.288-3.328L396.249,416.927z"/>
			</g>
		</g>
		
			<text transform="matrix(1 0 0 1 186.6819 446.6323)" style="fill:#513422; font-family:'Montserrat-Regular'; font-size:19.1579px;">Lorem ipsum</text>
	</g>
</g>
</svg>
